<svg xmlns="http://www.w3.org/2000/svg" viewBox="0 0 1100 360" role="img" aria-label="PatchPilot brand mark">
  <defs>
    <linearGradient id="brand-bg" x1="82" x2="306" y1="56" y2="304" gradientUnits="userSpaceOnUse">
      <stop stop-color="#0F77FF" />
      <stop offset="1" stop-color="#14B8A6" />
    </linearGradient>
    <linearGradient id="brand-ticket" x1="106" x2="236" y1="95" y2="252" gradientUnits="userSpaceOnUse">
      <stop stop-color="#FFF7D1" />
      <stop offset="1" stop-color="#FACC15" />
    </linearGradient>
  </defs>
  <rect x="26" y="26" width="1048" height="308" rx="42" fill="#FFFFFF" />
  <rect x="31" y="31" width="1038" height="298" rx="38" fill="none" stroke="#E1E9F0" stroke-width="2" />
  <g transform="translate(58 50)">
    <rect width="260" height="260" rx="58" fill="url(#brand-bg)" />
    <path d="M51 95c0-9 7-16 16-16h92c9 0 16 7 16 16v13a20 20 0 0 0 0 39v13c0 9-7 16-16 16H67c-9 0-16-7-16-16v-13a20 20 0 0 0 0-39V95Z" fill="url(#brand-ticket)" stroke="#091135" stroke-width="12" stroke-linejoin="round" />
    <path d="M103 83v90" fill="none" stroke="#091135" stroke-width="8" stroke-linecap="round" stroke-dasharray="11 18" opacity=".58" />
    <path d="M188 78v39c0 21-17 39-39 39h-10" fill="none" stroke="#FFFFFF" stroke-width="22" stroke-linecap="round" stroke-linejoin="round" />
    <path d="M188 78v39c0 21-17 39-39 39h-10" fill="none" stroke="#091135" stroke-width="12" stroke-linecap="round" stroke-linejoin="round" />
    <circle cx="188" cy="78" r="18" fill="#FFFFFF" stroke="#091135" stroke-width="12" />
    <circle cx="139" cy="156" r="18" fill="#FFFFFF" stroke="#091135" stroke-width="12" />
    <path d="m71 204 20 20 46-47" fill="none" stroke="#FFFFFF" stroke-width="21" stroke-linecap="round" stroke-linejoin="round" />
    <path d="m71 204 20 20 46-47" fill="none" stroke="#091135" stroke-width="12" stroke-linecap="round" stroke-linejoin="round" />
  </g>
  <text x="358" y="171" fill="#091135" font-family="Inter, Helvetica Neue, Arial, sans-serif" font-size="86" font-weight="800" letter-spacing="0">PatchPilot</text>
  <text x="362" y="229" fill="#5F6882" font-family="Inter, Helvetica Neue, Arial, sans-serif" font-size="30" font-weight="600" letter-spacing="0">Lark tickets in. Audited pull requests out.</text>
</svg>
