<svg xmlns="http://www.w3.org/2000/svg" viewBox="0 0 64 64" role="img" aria-label="PatchPilot logo">
  <defs>
    <linearGradient id="patchpilot-bg" x1="10" x2="54" y1="8" y2="58" gradientUnits="userSpaceOnUse">
      <stop stop-color="#0F77FF" />
      <stop offset="1" stop-color="#14B8A6" />
    </linearGradient>
    <linearGradient id="patchpilot-ticket" x1="15" x2="42" y1="18" y2="44" gradientUnits="userSpaceOnUse">
      <stop stop-color="#FFF7D1" />
      <stop offset="1" stop-color="#FACC15" />
    </linearGradient>
  </defs>
  <rect width="64" height="64" rx="16" fill="url(#patchpilot-bg)" />
  <path d="M14 23.5c0-2.2 1.8-4 4-4h22.5c2.2 0 4 1.8 4 4v3.2a4.8 4.8 0 0 0 0 9.6v3.2c0 2.2-1.8 4-4 4H18c-2.2 0-4-1.8-4-4v-3.2a4.8 4.8 0 0 0 0-9.6v-3.2Z" fill="url(#patchpilot-ticket)" stroke="#091135" stroke-width="3" stroke-linejoin="round" />
  <path d="M26.5 20.5v22" fill="none" stroke="#091135" stroke-width="2.2" stroke-linecap="round" stroke-dasharray="2.8 4.4" opacity=".58" />
  <path d="M47 20v9.5c0 5.2-4.2 9.5-9.5 9.5H35" fill="none" stroke="#FFFFFF" stroke-width="5.5" stroke-linecap="round" stroke-linejoin="round" />
  <path d="M47 20v9.5c0 5.2-4.2 9.5-9.5 9.5H35" fill="none" stroke="#091135" stroke-width="3" stroke-linecap="round" stroke-linejoin="round" />
  <circle cx="47" cy="20" r="4.5" fill="#FFFFFF" stroke="#091135" stroke-width="3" />
  <circle cx="35" cy="39" r="4.5" fill="#FFFFFF" stroke="#091135" stroke-width="3" />
  <path d="m19.5 50 4.8 4.8L35.5 43.5" fill="none" stroke="#FFFFFF" stroke-width="5.2" stroke-linecap="round" stroke-linejoin="round" />
  <path d="m19.5 50 4.8 4.8L35.5 43.5" fill="none" stroke="#091135" stroke-width="2.8" stroke-linecap="round" stroke-linejoin="round" />
</svg>
